# Rhino

g Default
v 10 0 20
v 7.875 0 14.25
v 6.5 0 9
v 5.875 0 4.25
v 6 0 0
v 9.80785 1.9509 20
v 7.72368 1.53634 14.25
v 6.3751 1.26809 9
v 5.76211 1.14616 4.25
v 5.88471 1.17054 0
v 9.2388 3.82683 20
v 7.27555 3.01363 14.25
v 6.00522 2.48744 9
v 5.42779 2.24827 4.25
v 5.54328 2.2961 0
v 8.3147 5.5557 20
v 6.54782 4.37512 14.25
v 5.40455 3.61121 9
v 4.88488 3.26398 4.25
v 4.98882 3.33342 0
v 7.07107 7.07107 20
v 5.56847 5.56847 14.25
v 4.59619 4.59619 9
v 4.15425 4.15425 4.25
v 4.24264 4.24264 0
v 5.5557 8.3147 20
v 4.37512 6.54782 14.25
v 3.61121 5.40455 9
v 3.26398 4.88488 4.25
v 3.33342 4.98882 0
v 3.82683 9.2388 20
v 3.01363 7.27555 14.25
v 2.48744 6.00522 9
v 2.24827 5.42779 4.25
v 2.2961 5.54328 0
v 1.9509 9.80785 20
v 1.53634 7.72368 14.25
v 1.26809 6.3751 9
v 1.14616 5.76211 4.25
v 1.17054 5.88471 0
v 6.12323e-16 10 20
v 4.82205e-16 7.875 14.25
v 3.9801e-16 6.5 9
v 3.5974e-16 5.875 4.25
v 3.67394e-16 6 0
v -1.9509 9.80785 20
v -1.53634 7.72368 14.25
v -1.26809 6.3751 9
v -1.14616 5.76211 4.25
v -1.17054 5.88471 0
v -3.82683 9.2388 20
v -3.01363 7.27555 14.25
v -2.48744 6.00522 9
v -2.24827 5.42779 4.25
v -2.2961 5.54328 0
v -5.5557 8.3147 20
v -4.37512 6.54782 14.25
v -3.61121 5.40455 9
v -3.26398 4.88488 4.25
v -3.33342 4.98882 0
v -7.07107 7.07107 20
v -5.56847 5.56847 14.25
v -4.59619 4.59619 9
v -4.15425 4.15425 4.25
v -4.24264 4.24264 0
v -8.3147 5.5557 20
v -6.54782 4.37512 14.25
v -5.40455 3.61121 9
v -4.88488 3.26398 4.25
v -4.98882 3.33342 0
v -9.2388 3.82683 20
v -7.27555 3.01363 14.25
v -6.00522 2.48744 9
v -5.42779 2.24827 4.25
v -5.54328 2.2961 0
v -9.80785 1.9509 20
v -7.72368 1.53634 14.25
v -6.3751 1.26809 9
v -5.76211 1.14616 4.25
v -5.88471 1.17054 0
v -10 1.22465e-15 20
v -7.875 9.64409e-16 14.25
v -6.5 7.9602e-16 9
v -5.875 7.1948e-16 4.25
v -6 7.34788e-16 0
v -9.80785 -1.9509 20
v -7.72368 -1.53634 14.25
v -6.3751 -1.26809 9
v -5.76211 -1.14616 4.25
v -5.88471 -1.17054 0
v -9.2388 -3.82683 20
v -7.27555 -3.01363 14.25
v -6.00522 -2.48744 9
v -5.42779 -2.24827 4.25
v -5.54328 -2.2961 0
v -8.3147 -5.5557 20
v -6.54782 -4.37512 14.25
v -5.40455 -3.61121 9
v -4.88488 -3.26398 4.25
v -4.98882 -3.33342 0
v -7.07107 -7.07107 20
v -5.56847 -5.56847 14.25
v -4.59619 -4.59619 9
v -4.15425 -4.15425 4.25
v -4.24264 -4.24264 0
v -5.5557 -8.3147 20
v -4.37512 -6.54782 14.25
v -3.61121 -5.40455 9
v -3.26398 -4.88488 4.25
v -3.33342 -4.98882 0
v -3.82683 -9.2388 20
v -3.01363 -7.27555 14.25
v -2.48744 -6.00522 9
v -2.24827 -5.42779 4.25
v -2.2961 -5.54328 0
v -1.9509 -9.80785 20
v -1.53634 -7.72368 14.25
v -1.26809 -6.3751 9
v -1.14616 -5.76211 4.25
v -1.17054 -5.88471 0
v -1.83697e-15 -10 20
v -1.44661e-15 -7.875 14.25
v -1.19403e-15 -6.5 9
v -1.07922e-15 -5.875 4.25
v -1.10218e-15 -6 0
v 1.9509 -9.80785 20
v 1.53634 -7.72368 14.25
v 1.26809 -6.3751 9
v 1.14616 -5.76211 4.25
v 1.17054 -5.88471 0
v 3.82683 -9.2388 20
v 3.01363 -7.27555 14.25
v 2.48744 -6.00522 9
v 2.24827 -5.42779 4.25
v 2.2961 -5.54328 0
v 5.5557 -8.3147 20
v 4.37512 -6.54782 14.25
v 3.61121 -5.40455 9
v 3.26398 -4.88488 4.25
v 3.33342 -4.98882 0
v 7.07107 -7.07107 20
v 5.56847 -5.56847 14.25
v 4.59619 -4.59619 9
v 4.15425 -4.15425 4.25
v 4.24264 -4.24264 0
v 8.3147 -5.5557 20
v 6.54782 -4.37512 14.25
v 5.40455 -3.61121 9
v 4.88488 -3.26398 4.25
v 4.98882 -3.33342 0
v 9.2388 -3.82683 20
v 7.27555 -3.01363 14.25
v 6.00522 -2.48744 9
v 5.42779 -2.24827 4.25
v 5.54328 -2.2961 0
v 9.80785 -1.9509 20
v 7.72368 -1.53634 14.25
v 6.3751 -1.26809 9
v 5.76211 -1.14616 4.25
v 5.88471 -1.17054 0
v 10 0 20
v 7.875 0 14.25
v 6.5 0 9
v 5.875 0 4.25
v 6 0 0
vt 0 0
vt 0 0.25
vt 0 0.5
vt 0 0.75
vt 0 1
vt 0.03125 0
vt 0.03125 0.25
vt 0.03125 0.5
vt 0.03125 0.75
vt 0.03125 1
vt 0.0625 0
vt 0.0625 0.25
vt 0.0625 0.5
vt 0.0625 0.75
vt 0.0625 1
vt 0.09375 0
vt 0.09375 0.25
vt 0.09375 0.5
vt 0.09375 0.75
vt 0.09375 1
vt 0.125 0
vt 0.125 0.25
vt 0.125 0.5
vt 0.125 0.75
vt 0.125 1
vt 0.15625 0
vt 0.15625 0.25
vt 0.15625 0.5
vt 0.15625 0.75
vt 0.15625 1
vt 0.1875 0
vt 0.1875 0.25
vt 0.1875 0.5
vt 0.1875 0.75
vt 0.1875 1
vt 0.21875 0
vt 0.21875 0.25
vt 0.21875 0.5
vt 0.21875 0.75
vt 0.21875 1
vt 0.25 0
vt 0.25 0.25
vt 0.25 0.5
vt 0.25 0.75
vt 0.25 1
vt 0.28125 0
vt 0.28125 0.25
vt 0.28125 0.5
vt 0.28125 0.75
vt 0.28125 1
vt 0.3125 0
vt 0.3125 0.25
vt 0.3125 0.5
vt 0.3125 0.75
vt 0.3125 1
vt 0.34375 0
vt 0.34375 0.25
vt 0.34375 0.5
vt 0.34375 0.75
vt 0.34375 1
vt 0.375 0
vt 0.375 0.25
vt 0.375 0.5
vt 0.375 0.75
vt 0.375 1
vt 0.40625 0
vt 0.40625 0.25
vt 0.40625 0.5
vt 0.40625 0.75
vt 0.40625 1
vt 0.4375 0
vt 0.4375 0.25
vt 0.4375 0.5
vt 0.4375 0.75
vt 0.4375 1
vt 0.46875 0
vt 0.46875 0.25
vt 0.46875 0.5
vt 0.46875 0.75
vt 0.46875 1
vt 0.5 0
vt 0.5 0.25
vt 0.5 0.5
vt 0.5 0.75
vt 0.5 1
vt 0.53125 0
vt 0.53125 0.25
vt 0.53125 0.5
vt 0.53125 0.75
vt 0.53125 1
vt 0.5625 0
vt 0.5625 0.25
vt 0.5625 0.5
vt 0.5625 0.75
vt 0.5625 1
vt 0.59375 0
vt 0.59375 0.25
vt 0.59375 0.5
vt 0.59375 0.75
vt 0.59375 1
vt 0.625 0
vt 0.625 0.25
vt 0.625 0.5
vt 0.625 0.75
vt 0.625 1
vt 0.65625 0
vt 0.65625 0.25
vt 0.65625 0.5
vt 0.65625 0.75
vt 0.65625 1
vt 0.6875 0
vt 0.6875 0.25
vt 0.6875 0.5
vt 0.6875 0.75
vt 0.6875 1
vt 0.71875 0
vt 0.71875 0.25
vt 0.71875 0.5
vt 0.71875 0.75
vt 0.71875 1
vt 0.75 0
vt 0.75 0.25
vt 0.75 0.5
vt 0.75 0.75
vt 0.75 1
vt 0.78125 0
vt 0.78125 0.25
vt 0.78125 0.5
vt 0.78125 0.75
vt 0.78125 1
vt 0.8125 0
vt 0.8125 0.25
vt 0.8125 0.5
vt 0.8125 0.75
vt 0.8125 1
vt 0.84375 0
vt 0.84375 0.25
vt 0.84375 0.5
vt 0.84375 0.75
vt 0.84375 1
vt 0.875 0
vt 0.875 0.25
vt 0.875 0.5
vt 0.875 0.75
vt 0.875 1
vt 0.90625 0
vt 0.90625 0.25
vt 0.90625 0.5
vt 0.90625 0.75
vt 0.90625 1
vt 0.9375 0
vt 0.9375 0.25
vt 0.9375 0.5
vt 0.9375 0.75
vt 0.9375 1
vt 0.96875 0
vt 0.96875 0.25
vt 0.96875 0.5
vt 0.96875 0.75
vt 0.96875 1
vt 1 0
vt 1 0.25
vt 1 0.5
vt 1 0.75
vt 1 1
vn -0.923077 0 0.384615
vn -0.952926 0 0.303204
vn -0.980581 0 0.196116
vn -0.99846 0 0.05547
vn -0.992278 0 -0.124035
vn -0.90534 -0.180083 0.384615
vn -0.934616 -0.185907 0.303204
vn -0.961739 -0.191302 0.196116
vn -0.979275 -0.19479 0.05547
vn -0.973212 -0.193584 -0.124035
vn -0.852812 -0.353246 0.384615
vn -0.880389 -0.364669 0.303204
vn -0.905938 -0.375252 0.196116
vn -0.922457 -0.382094 0.05547
vn -0.916745 -0.379728 -0.124035
vn -0.76751 -0.512834 0.384615
vn -0.792329 -0.529417 0.303204
vn -0.815323 -0.544781 0.196116
vn -0.830189 -0.554715 0.05547
vn -0.825049 -0.55128 -0.124035
vn -0.652714 -0.652714 0.384615
vn -0.67382 -0.67382 0.303204
vn -0.693375 -0.693375 0.196116
vn -0.706018 -0.706018 0.05547
vn -0.701646 -0.701646 -0.124035
vn -0.512834 -0.76751 0.384615
vn -0.529417 -0.792329 0.303204
vn -0.544781 -0.815323 0.196116
vn -0.554715 -0.830189 0.05547
vn -0.55128 -0.825049 -0.124035
vn -0.353246 -0.852812 0.384615
vn -0.364669 -0.880389 0.303204
vn -0.375252 -0.905938 0.196116
vn -0.382094 -0.922457 0.05547
vn -0.379728 -0.916745 -0.124035
vn -0.180083 -0.90534 0.384615
vn -0.185907 -0.934616 0.303204
vn -0.191302 -0.961739 0.196116
vn -0.19479 -0.979275 0.05547
vn -0.193584 -0.973212 -0.124035
vn -5.65222e-17 -0.923077 0.384615
vn -5.83499e-17 -0.952926 0.303204
vn -6.00432e-17 -0.980581 0.196116
vn -6.11381e-17 -0.99846 0.05547
vn -6.07595e-17 -0.992278 -0.124035
vn 0.180083 -0.90534 0.384615
vn 0.185907 -0.934616 0.303204
vn 0.191302 -0.961739 0.196116
vn 0.19479 -0.979275 0.05547
vn 0.193584 -0.973212 -0.124035
vn 0.353246 -0.852812 0.384615
vn 0.364669 -0.880389 0.303204
vn 0.375252 -0.905938 0.196116
vn 0.382094 -0.922457 0.05547
vn 0.379728 -0.916745 -0.124035
vn 0.512834 -0.76751 0.384615
vn 0.529417 -0.792329 0.303204
vn 0.544781 -0.815323 0.196116
vn 0.554715 -0.830189 0.05547
vn 0.55128 -0.825049 -0.124035
vn 0.652714 -0.652714 0.384615
vn 0.67382 -0.67382 0.303204
vn 0.693375 -0.693375 0.196116
vn 0.706018 -0.706018 0.05547
vn 0.701646 -0.701646 -0.124035
vn 0.76751 -0.512834 0.384615
vn 0.792329 -0.529417 0.303204
vn 0.815323 -0.544781 0.196116
vn 0.830189 -0.554715 0.05547
vn 0.825049 -0.55128 -0.124035
vn 0.852812 -0.353246 0.384615
vn 0.880389 -0.364669 0.303204
vn 0.905938 -0.375252 0.196116
vn 0.922457 -0.382094 0.05547
vn 0.916745 -0.379728 -0.124035
vn 0.90534 -0.180083 0.384615
vn 0.934616 -0.185907 0.303204
vn 0.961739 -0.191302 0.196116
vn 0.979275 -0.19479 0.05547
vn 0.973212 -0.193584 -0.124035
vn 0.923077 -1.13044e-16 0.384615
vn 0.952926 -1.167e-16 0.303204
vn 0.980581 -1.20086e-16 0.196116
vn 0.99846 -1.22276e-16 0.05547
vn 0.992278 -1.21519e-16 -0.124035
vn 0.90534 0.180083 0.384615
vn 0.934616 0.185907 0.303204
vn 0.961739 0.191302 0.196116
vn 0.979275 0.19479 0.05547
vn 0.973212 0.193584 -0.124035
vn 0.852812 0.353246 0.384615
vn 0.880389 0.364669 0.303204
vn 0.905938 0.375252 0.196116
vn 0.922457 0.382094 0.05547
vn 0.916745 0.379728 -0.124035
vn 0.76751 0.512834 0.384615
vn 0.792329 0.529417 0.303204
vn 0.815323 0.544781 0.196116
vn 0.830189 0.554715 0.05547
vn 0.825049 0.55128 -0.124035
vn 0.652714 0.652714 0.384615
vn 0.67382 0.67382 0.303204
vn 0.693375 0.693375 0.196116
vn 0.706018 0.706018 0.05547
vn 0.701646 0.701646 -0.124035
vn 0.512834 0.76751 0.384615
vn 0.529417 0.792329 0.303204
vn 0.544781 0.815323 0.196116
vn 0.554715 0.830189 0.05547
vn 0.55128 0.825049 -0.124035
vn 0.353246 0.852812 0.384615
vn 0.364669 0.880389 0.303204
vn 0.375252 0.905938 0.196116
vn 0.382094 0.922457 0.05547
vn 0.379728 0.916745 -0.124035
vn 0.180083 0.90534 0.384615
vn 0.185907 0.934616 0.303204
vn 0.191302 0.961739 0.196116
vn 0.19479 0.979275 0.05547
vn 0.193584 0.973212 -0.124035
vn 1.69566e-16 0.923077 0.384615
vn 1.7505e-16 0.952926 0.303204
vn 1.8013e-16 0.980581 0.196116
vn 1.83414e-16 0.99846 0.05547
vn 1.82278e-16 0.992278 -0.124035
vn -0.180083 0.90534 0.384615
vn -0.185907 0.934616 0.303204
vn -0.191302 0.961739 0.196116
vn -0.19479 0.979275 0.05547
vn -0.193584 0.973212 -0.124035
vn -0.353246 0.852812 0.384615
vn -0.364669 0.880389 0.303204
vn -0.375252 0.905938 0.196116
vn -0.382094 0.922457 0.05547
vn -0.379728 0.916745 -0.124035
vn -0.512834 0.76751 0.384615
vn -0.529417 0.792329 0.303204
vn -0.544781 0.815323 0.196116
vn -0.554715 0.830189 0.05547
vn -0.55128 0.825049 -0.124035
vn -0.652714 0.652714 0.384615
vn -0.67382 0.67382 0.303204
vn -0.693375 0.693375 0.196116
vn -0.706018 0.706018 0.05547
vn -0.701646 0.701646 -0.124035
vn -0.76751 0.512834 0.384615
vn -0.792329 0.529417 0.303204
vn -0.815323 0.544781 0.196116
vn -0.830189 0.554715 0.05547
vn -0.825049 0.55128 -0.124035
vn -0.852812 0.353246 0.384615
vn -0.880389 0.364669 0.303204
vn -0.905938 0.375252 0.196116
vn -0.922457 0.382094 0.05547
vn -0.916745 0.379728 -0.124035
vn -0.90534 0.180083 0.384615
vn -0.934616 0.185907 0.303204
vn -0.961739 0.191302 0.196116
vn -0.979275 0.19479 0.05547
vn -0.973212 0.193584 -0.124035
vn -0.923077 2.26089e-16 0.384615
vn -0.952926 2.334e-16 0.303204
vn -0.980581 2.40173e-16 0.196116
vn -0.99846 2.44552e-16 0.05547
vn -0.992278 2.43038e-16 -0.124035
f 7/7/7 2/2/2 1/1/1 6/6/6
f 8/8/8 3/3/3 2/2/2 7/7/7
f 9/9/9 4/4/4 3/3/3 8/8/8
f 10/10/10 5/5/5 4/4/4 9/9/9
f 12/12/12 7/7/7 6/6/6 11/11/11
f 13/13/13 8/8/8 7/7/7 12/12/12
f 14/14/14 9/9/9 8/8/8 13/13/13
f 15/15/15 10/10/10 9/9/9 14/14/14
f 17/17/17 12/12/12 11/11/11 16/16/16
f 18/18/18 13/13/13 12/12/12 17/17/17
f 19/19/19 14/14/14 13/13/13 18/18/18
f 20/20/20 15/15/15 14/14/14 19/19/19
f 22/22/22 17/17/17 16/16/16 21/21/21
f 23/23/23 18/18/18 17/17/17 22/22/22
f 24/24/24 19/19/19 18/18/18 23/23/23
f 25/25/25 20/20/20 19/19/19 24/24/24
f 27/27/27 22/22/22 21/21/21 26/26/26
f 28/28/28 23/23/23 22/22/22 27/27/27
f 29/29/29 24/24/24 23/23/23 28/28/28
f 30/30/30 25/25/25 24/24/24 29/29/29
f 32/32/32 27/27/27 26/26/26 31/31/31
f 33/33/33 28/28/28 27/27/27 32/32/32
f 34/34/34 29/29/29 28/28/28 33/33/33
f 35/35/35 30/30/30 29/29/29 34/34/34
f 37/37/37 32/32/32 31/31/31 36/36/36
f 38/38/38 33/33/33 32/32/32 37/37/37
f 39/39/39 34/34/34 33/33/33 38/38/38
f 40/40/40 35/35/35 34/34/34 39/39/39
f 42/42/42 37/37/37 36/36/36 41/41/41
f 43/43/43 38/38/38 37/37/37 42/42/42
f 44/44/44 39/39/39 38/38/38 43/43/43
f 45/45/45 40/40/40 39/39/39 44/44/44
f 47/47/47 42/42/42 41/41/41 46/46/46
f 48/48/48 43/43/43 42/42/42 47/47/47
f 49/49/49 44/44/44 43/43/43 48/48/48
f 50/50/50 45/45/45 44/44/44 49/49/49
f 52/52/52 47/47/47 46/46/46 51/51/51
f 53/53/53 48/48/48 47/47/47 52/52/52
f 54/54/54 49/49/49 48/48/48 53/53/53
f 55/55/55 50/50/50 49/49/49 54/54/54
f 57/57/57 52/52/52 51/51/51 56/56/56
f 58/58/58 53/53/53 52/52/52 57/57/57
f 59/59/59 54/54/54 53/53/53 58/58/58
f 60/60/60 55/55/55 54/54/54 59/59/59
f 62/62/62 57/57/57 56/56/56 61/61/61
f 63/63/63 58/58/58 57/57/57 62/62/62
f 64/64/64 59/59/59 58/58/58 63/63/63
f 65/65/65 60/60/60 59/59/59 64/64/64
f 67/67/67 62/62/62 61/61/61 66/66/66
f 68/68/68 63/63/63 62/62/62 67/67/67
f 69/69/69 64/64/64 63/63/63 68/68/68
f 70/70/70 65/65/65 64/64/64 69/69/69
f 72/72/72 67/67/67 66/66/66 71/71/71
f 73/73/73 68/68/68 67/67/67 72/72/72
f 74/74/74 69/69/69 68/68/68 73/73/73
f 75/75/75 70/70/70 69/69/69 74/74/74
f 77/77/77 72/72/72 71/71/71 76/76/76
f 78/78/78 73/73/73 72/72/72 77/77/77
f 79/79/79 74/74/74 73/73/73 78/78/78
f 80/80/80 75/75/75 74/74/74 79/79/79
f 82/82/82 77/77/77 76/76/76 81/81/81
f 83/83/83 78/78/78 77/77/77 82/82/82
f 84/84/84 79/79/79 78/78/78 83/83/83
f 85/85/85 80/80/80 79/79/79 84/84/84
f 87/87/87 82/82/82 81/81/81 86/86/86
f 88/88/88 83/83/83 82/82/82 87/87/87
f 89/89/89 84/84/84 83/83/83 88/88/88
f 90/90/90 85/85/85 84/84/84 89/89/89
f 92/92/92 87/87/87 86/86/86 91/91/91
f 93/93/93 88/88/88 87/87/87 92/92/92
f 94/94/94 89/89/89 88/88/88 93/93/93
f 95/95/95 90/90/90 89/89/89 94/94/94
f 97/97/97 92/92/92 91/91/91 96/96/96
f 98/98/98 93/93/93 92/92/92 97/97/97
f 99/99/99 94/94/94 93/93/93 98/98/98
f 100/100/100 95/95/95 94/94/94 99/99/99
f 102/102/102 97/97/97 96/96/96 101/101/101
f 103/103/103 98/98/98 97/97/97 102/102/102
f 104/104/104 99/99/99 98/98/98 103/103/103
f 105/105/105 100/100/100 99/99/99 104/104/104
f 107/107/107 102/102/102 101/101/101 106/106/106
f 108/108/108 103/103/103 102/102/102 107/107/107
f 109/109/109 104/104/104 103/103/103 108/108/108
f 110/110/110 105/105/105 104/104/104 109/109/109
f 112/112/112 107/107/107 106/106/106 111/111/111
f 113/113/113 108/108/108 107/107/107 112/112/112
f 114/114/114 109/109/109 108/108/108 113/113/113
f 115/115/115 110/110/110 109/109/109 114/114/114
f 117/117/117 112/112/112 111/111/111 116/116/116
f 118/118/118 113/113/113 112/112/112 117/117/117
f 119/119/119 114/114/114 113/113/113 118/118/118
f 120/120/120 115/115/115 114/114/114 119/119/119
f 122/122/122 117/117/117 116/116/116 121/121/121
f 123/123/123 118/118/118 117/117/117 122/122/122
f 124/124/124 119/119/119 118/118/118 123/123/123
f 125/125/125 120/120/120 119/119/119 124/124/124
f 127/127/127 122/122/122 121/121/121 126/126/126
f 128/128/128 123/123/123 122/122/122 127/127/127
f 129/129/129 124/124/124 123/123/123 128/128/128
f 130/130/130 125/125/125 124/124/124 129/129/129
f 132/132/132 127/127/127 126/126/126 131/131/131
f 133/133/133 128/128/128 127/127/127 132/132/132
f 134/134/134 129/129/129 128/128/128 133/133/133
f 135/135/135 130/130/130 129/129/129 134/134/134
f 137/137/137 132/132/132 131/131/131 136/136/136
f 138/138/138 133/133/133 132/132/132 137/137/137
f 139/139/139 134/134/134 133/133/133 138/138/138
f 140/140/140 135/135/135 134/134/134 139/139/139
f 142/142/142 137/137/137 136/136/136 141/141/141
f 143/143/143 138/138/138 137/137/137 142/142/142
f 144/144/144 139/139/139 138/138/138 143/143/143
f 145/145/145 140/140/140 139/139/139 144/144/144
f 147/147/147 142/142/142 141/141/141 146/146/146
f 148/148/148 143/143/143 142/142/142 147/147/147
f 149/149/149 144/144/144 143/143/143 148/148/148
f 150/150/150 145/145/145 144/144/144 149/149/149
f 152/152/152 147/147/147 146/146/146 151/151/151
f 153/153/153 148/148/148 147/147/147 152/152/152
f 154/154/154 149/149/149 148/148/148 153/153/153
f 155/155/155 150/150/150 149/149/149 154/154/154
f 157/157/157 152/152/152 151/151/151 156/156/156
f 158/158/158 153/153/153 152/152/152 157/157/157
f 159/159/159 154/154/154 153/153/153 158/158/158
f 160/160/160 155/155/155 154/154/154 159/159/159
f 162/162/162 157/157/157 156/156/156 161/161/161
f 163/163/163 158/158/158 157/157/157 162/162/162
f 164/164/164 159/159/159 158/158/158 163/163/163
f 165/165/165 160/160/160 159/159/159 164/164/164
